<svg width="20" height="22" viewBox="0 0 20 22" fill="#808191" xmlns="http://www.w3.org/2000/svg">
<path fill-rule="evenodd" clip-rule="evenodd" d="M11.4948 2.31833C10.6423 1.56056 9.35767 1.56056 8.50518 2.31833L2.50518 7.65166C2.02483 8.07864 1.75 8.69065 1.75 9.33333V17.9861C1.75 19.2288 2.75736 20.2361 4 20.2361H6.25V14.0972C6.25 12.8546 7.25736 11.8472 8.5 11.8472H11.5C12.7426 11.8472 13.75 12.8546 13.75 14.0972V20.2361H16C17.2426 20.2361 18.25 19.2288 18.25 17.9861V9.33333C18.25 8.69065 17.9752 8.07864 17.4948 7.65166L11.4948 2.31833ZM12.25 20.2361V14.0972C12.25 13.683 11.9142 13.3472 11.5 13.3472H8.5C8.08579 13.3472 7.75 13.683 7.75 14.0972V20.2361H12.25ZM7.50864 1.19722C8.92946 -0.0657384 11.0705 -0.0657384 12.4914 1.19722L18.4914 6.53055C19.2919 7.24218 19.75 8.26219 19.75 9.33333V17.9861C19.75 20.0572 18.0711 21.7361 16 21.7361H4C1.92893 21.7361 0.25 20.0572 0.25 17.9861V9.33333C0.25 8.26219 0.708054 7.24218 1.50864 6.53055L7.50864 1.19722Z" fill="#939393"/>
</svg>
