<svg width="24" height="24" viewBox="0 0 24 24" fill="none" xmlns="http://www.w3.org/2000/svg">
<path d="M2.25002 15C2.25002 11.2913 5.29127 8.25 9.00002 8.25C9.39002 8.25 9.73352 8.31375 10.0785 8.367L15.96 2.46L16.1955 2.25L21.75 2.25L21.75 7.5L19.5 7.5L19.5 9.75L17.25 9.75L17.25 12L15.0225 12C15.4575 12.885 15.75 13.9163 15.75 15C15.75 18.7088 12.7088 21.75 9.00002 21.75C5.29127 21.75 2.25002 18.7087 2.25002 15ZM3.75002 15C3.75002 17.8912 6.10877 20.25 9.00002 20.25C11.8913 20.25 14.25 17.8913 14.25 15C14.2406 14.108 14.0154 13.2316 13.5938 12.4455L13.5 12.258L13.5 10.5L15.75 10.5L15.75 8.25L18 8.25L18 6L20.25 6L20.25 3.75L16.8278 3.75L10.875 9.6795L10.617 9.96075L10.2195 9.89175C9.76952 9.81675 9.36677 9.75075 9.00002 9.75075C6.10877 9.75075 3.75002 12.1095 3.75002 15.0007L3.75002 15ZM6.00002 16.5C5.99551 16.3002 6.03094 16.1016 6.10425 15.9157C6.17756 15.7299 6.28727 15.5605 6.42693 15.4176C6.56658 15.2747 6.73338 15.1612 6.91753 15.0836C7.10168 15.0061 7.29946 14.9661 7.49926 14.9661C7.69907 14.966 7.89687 15.0059 8.08106 15.0834C8.26524 15.1608 8.4321 15.2743 8.57183 15.4171C8.71156 15.5599 8.82135 15.7292 8.89475 15.915C8.96815 16.1009 9.00369 16.2995 8.99927 16.4993C8.99061 16.8912 8.82885 17.2641 8.54864 17.5383C8.26843 17.8124 7.89203 17.966 7.50001 17.9661C7.108 17.9662 6.73152 17.8128 6.45117 17.5388C6.17082 17.2648 6.00888 16.8919 6.00002 16.5Z" fill="#A0A1AB"/>
</svg>
