<svg width="24" height="24" viewBox="0 0 24 24" fill="none" xmlns="http://www.w3.org/2000/svg">
<path fill-rule="evenodd" clip-rule="evenodd" d="M7.25 6C7.25 3.37665 9.37665 1.25 12 1.25C14.6234 1.25 16.75 3.37665 16.75 6V9.87582C18.5754 11.2937 19.75 13.5097 19.75 16C19.75 20.2802 16.2802 23.75 12 23.75C7.71979 23.75 4.25 20.2802 4.25 16C4.25 13.5097 5.4246 11.2937 7.25 9.87582V6ZM8.75 8.96232C9.7384 8.50511 10.8394 8.25 12 8.25C13.1606 8.25 14.2616 8.50511 15.25 8.96232V6C15.25 4.20507 13.7949 2.75 12 2.75C10.2051 2.75 8.75 4.20507 8.75 6V8.96232ZM12 9.75C8.54822 9.75 5.75 12.5482 5.75 16C5.75 19.4518 8.54822 22.25 12 22.25C15.4518 22.25 18.25 19.4518 18.25 16C18.25 12.5482 15.4518 9.75 12 9.75ZM12 14.75C11.3096 14.75 10.75 15.3096 10.75 16C10.75 16.6904 11.3096 17.25 12 17.25C12.6904 17.25 13.25 16.6904 13.25 16C13.25 15.3096 12.6904 14.75 12 14.75ZM9.25 16C9.25 14.4812 10.4812 13.25 12 13.25C13.5188 13.25 14.75 14.4812 14.75 16C14.75 17.5188 13.5188 18.75 12 18.75C10.4812 18.75 9.25 17.5188 9.25 16Z" fill="#939393"/>
</svg>
