<svg width="81" height="46" viewBox="0 0 81 46" fill="none" xmlns="http://www.w3.org/2000/svg">
<path d="M37.4387 13.1729C38.0933 13.1729 38.6966 13.0554 39.2486 12.8205C39.8133 12.5725 40.2818 12.2135 40.6541 11.7437L41.2124 12.3898C40.776 12.938 40.2305 13.3556 39.5759 13.6428C38.9213 13.9169 38.2024 14.0539 37.4195 14.0539C36.4183 14.0539 35.5198 13.8321 34.724 13.3883C33.941 12.9445 33.3249 12.331 32.8756 11.5479C32.4392 10.7647 32.221 9.87062 32.221 8.86558C32.221 7.86054 32.4264 6.96645 32.8371 6.1833C33.2607 5.40015 33.8447 4.78668 34.5892 4.3429C35.3337 3.89911 36.1744 3.67722 37.1114 3.67722C37.9842 3.67722 38.7672 3.88606 39.4604 4.30374C40.1663 4.70837 40.7247 5.27615 41.1354 6.00709C41.559 6.72498 41.79 7.53423 41.8286 8.43485L33.3377 10.1186C33.5816 11.0584 34.0693 11.8024 34.801 12.3506C35.5326 12.8988 36.4119 13.1729 37.4387 13.1729ZM37.1114 4.53868C36.3541 4.53868 35.6738 4.72142 35.0705 5.08689C34.4672 5.43931 33.9987 5.94183 33.665 6.59445C33.3313 7.23402 33.1644 7.96496 33.1644 8.78727C33.1644 8.93085 33.1772 9.13316 33.2029 9.39421L40.8659 7.86707C40.776 7.2536 40.5642 6.69234 40.2305 6.1833C39.8968 5.67425 39.4604 5.27615 38.9213 4.98899C38.3821 4.68879 37.7789 4.53868 37.1114 4.53868Z" fill="#4188FF"/>
<path d="M49.7164 3.67722C50.9743 3.67722 51.9691 4.04922 52.7007 4.79321C53.4323 5.5372 53.7982 6.6075 53.7982 8.00412V13.9756H52.8355V8.08243C52.8355 6.93381 52.5467 6.0593 51.9691 5.45888C51.4043 4.85847 50.6085 4.55826 49.5816 4.55826C48.4007 4.55826 47.4701 4.91721 46.7898 5.63509C46.1095 6.35298 45.7694 7.31886 45.7694 8.53274V13.9756H44.8067V3.75553H45.7309V5.96793C46.0774 5.25004 46.5909 4.68879 47.2712 4.28416C47.9643 3.87953 48.7794 3.67722 49.7164 3.67722Z" fill="#4188FF"/>
<path d="M62.4402 13.3295C62.1963 13.5645 61.8883 13.7472 61.516 13.8777C61.1566 13.9952 60.778 14.0539 60.3801 14.0539C59.5072 14.0539 58.8333 13.8125 58.3584 13.3295C57.8835 12.8335 57.646 12.1483 57.646 11.2738V1.52356H58.6087V3.75553H61.8048V4.59742H58.6087V11.1759C58.6087 11.8415 58.7628 12.3506 59.0708 12.703C59.3917 13.0424 59.8602 13.2121 60.4763 13.2121C61.1053 13.2121 61.6251 13.0228 62.0359 12.6443L62.4402 13.3295Z" fill="#4188FF"/>
<path d="M68.8763 13.1729C69.531 13.1729 70.1342 13.0554 70.6862 12.8205C71.251 12.5725 71.7195 12.2135 72.0917 11.7437L72.6501 12.3898C72.2136 12.938 71.6681 13.3556 71.0135 13.6428C70.3589 13.9169 69.6401 14.0539 68.8571 14.0539C67.8559 14.0539 66.9574 13.8321 66.1616 13.3883C65.3786 12.9445 64.7625 12.331 64.3132 11.5479C63.8768 10.7647 63.6586 9.87062 63.6586 8.86558C63.6586 7.86054 63.864 6.96645 64.2747 6.1833C64.6983 5.40015 65.2823 4.78668 66.0268 4.3429C66.7713 3.89911 67.612 3.67722 68.549 3.67722C69.4219 3.67722 70.2048 3.88606 70.898 4.30374C71.6039 4.70837 72.1623 5.27615 72.573 6.00709C72.9966 6.72498 73.2277 7.53423 73.2662 8.43485L64.7753 10.1186C65.0192 11.0584 65.507 11.8024 66.2386 12.3506C66.9702 12.8988 67.8495 13.1729 68.8763 13.1729ZM68.549 4.53868C67.7917 4.53868 67.1114 4.72142 66.5081 5.08689C65.9049 5.43931 65.4364 5.94183 65.1026 6.59445C64.7689 7.23402 64.602 7.96496 64.602 8.78727C64.602 8.93085 64.6149 9.13316 64.6405 9.39421L72.3035 7.86707C72.2136 7.2536 72.0019 6.69234 71.6681 6.1833C71.3344 5.67425 70.898 5.27615 70.3589 4.98899C69.8198 4.68879 69.2165 4.53868 68.549 4.53868Z" fill="#4188FF"/>
<path d="M77.1685 5.98751C77.4766 5.24352 77.9579 4.67573 78.6125 4.28416C79.2672 3.87953 80.063 3.67722 81 3.67722V4.63658L80.7689 4.617C79.6522 4.617 78.7794 4.97594 78.1504 5.69383C77.5215 6.39866 77.207 7.38413 77.207 8.65022V13.9756H76.2443V3.75553H77.1685V5.98751Z" fill="#4188FF"/>
<path d="M39.8814 21.2142C41.4884 21.2142 42.9005 21.542 44.118 22.1977C45.3516 22.837 46.3012 23.7796 46.9667 25.0254C47.6484 26.2549 47.9893 27.7384 47.9893 29.476V38.7705H43.1684V34.9592H36.5214V38.7705H31.7735V29.476C31.7735 27.7384 32.1063 26.2549 32.7718 25.0254C33.4535 23.7796 34.4031 22.837 35.6205 22.1977C36.8541 21.542 38.2744 21.2142 39.8814 21.2142ZM43.1684 31.1972V29.058C43.1684 27.7957 42.8681 26.845 42.2675 26.2057C41.6669 25.5664 40.8634 25.2467 39.857 25.2467C38.8344 25.2467 38.0228 25.5664 37.4222 26.2057C36.8217 26.845 36.5214 27.7957 36.5214 29.058V31.1972H43.1684Z" fill="#4188FF"/>
<path d="M57.2402 39.1147C55.8605 39.1147 54.5213 38.9426 53.2228 38.5984C51.9242 38.2541 50.8691 37.7951 50.0575 37.2214L51.6402 33.6315C52.4031 34.1396 53.2877 34.5494 54.2941 34.8609C55.3005 35.1723 56.2906 35.3281 57.2646 35.3281C59.115 35.3281 60.0402 34.8609 60.0402 33.9265C60.0402 33.4347 59.7724 33.0741 59.2367 32.8446C58.7173 32.5987 57.8733 32.3446 56.7046 32.0824C55.4222 31.8037 54.3509 31.5086 53.4906 31.1972C52.6303 30.8693 51.8918 30.353 51.2749 29.6481C50.6581 28.9432 50.3497 27.9924 50.3497 26.7958C50.3497 25.7467 50.6338 24.8041 51.2019 23.9681C51.77 23.1157 52.6141 22.4436 53.7341 21.9518C54.8703 21.4601 56.2582 21.2142 57.8976 21.2142C59.0176 21.2142 60.1214 21.3453 61.2089 21.6076C62.2965 21.8535 63.2542 22.2223 64.082 22.7141L62.5968 26.3286C60.9736 25.4434 59.3991 25.0008 57.8733 25.0008C56.9156 25.0008 56.2176 25.1484 55.7793 25.4434C55.3411 25.7221 55.1219 26.0909 55.1219 26.5499C55.1219 27.0089 55.3816 27.3531 55.9011 27.5826C56.4205 27.8121 57.2564 28.0498 58.4089 28.2957C59.7075 28.5744 60.7788 28.8776 61.6229 29.2055C62.4832 29.5169 63.2217 30.0251 63.8385 30.73C64.4716 31.4185 64.7881 32.361 64.7881 33.5577C64.7881 34.5904 64.504 35.5248 63.9359 36.3608C63.3678 37.1968 62.5156 37.8689 61.3794 38.3771C60.2431 38.8688 58.8634 39.1147 57.2402 39.1147Z" fill="#4188FF"/>
<path d="M73.0046 39.1147C71.6249 39.1147 70.2857 38.9426 68.9872 38.5984C67.6886 38.2541 66.6335 37.7951 65.8219 37.2214L67.4046 33.6315C68.1675 34.1396 69.0521 34.5494 70.0585 34.8609C71.0649 35.1723 72.055 35.3281 73.029 35.3281C74.8794 35.3281 75.8046 34.8609 75.8046 33.9265C75.8046 33.4347 75.5368 33.0741 75.0011 32.8446C74.4817 32.5987 73.6377 32.3446 72.469 32.0824C71.1866 31.8037 70.1153 31.5086 69.255 31.1972C68.3947 30.8693 67.6562 30.353 67.0393 29.6481C66.4225 28.9432 66.1141 27.9924 66.1141 26.7958C66.1141 25.7467 66.3982 24.8041 66.9663 23.9681C67.5344 23.1157 68.3785 22.4436 69.4985 21.9518C70.6347 21.4601 72.0226 21.2142 73.662 21.2142C74.782 21.2142 75.8858 21.3453 76.9733 21.6076C78.0609 21.8535 79.0186 22.2223 79.8464 22.7141L78.3612 26.3286C76.738 25.4434 75.1635 25.0008 73.6377 25.0008C72.68 25.0008 71.982 25.1484 71.5437 25.4434C71.1055 25.7221 70.8863 26.0909 70.8863 26.5499C70.8863 27.0089 71.146 27.3531 71.6655 27.5826C72.1849 27.8121 73.0208 28.0498 74.1733 28.2957C75.4719 28.5744 76.5432 28.8776 77.3873 29.2055C78.2476 29.5169 78.9861 30.0251 79.6029 30.73C80.236 31.4185 80.5525 32.361 80.5525 33.5577C80.5525 34.5904 80.2684 35.5248 79.7003 36.3608C79.1322 37.1968 78.28 37.8689 77.1438 38.3771C76.0075 38.8688 74.6278 39.1147 73.0046 39.1147Z" fill="#4188FF"/>
<path d="M16.2192 32.7474C13.0378 32.7474 9.92667 31.821 7.273 30.0834C4.61933 28.3459 2.54033 25.8741 1.29476 22.9755C0.0491946 20.0769 -0.307937 16.8796 0.267819 13.7816C0.843575 10.6835 2.32679 7.82158 4.53286 5.55189C6.73893 3.2822 9.57043 1.70503 12.6749 1.01667C15.7794 0.32831 19.0198 0.559167 21.9928 1.68051C24.9658 2.80185 27.5401 4.76415 29.3953 7.32317C31.2505 9.8822 32.3046 12.9249 32.4265 16.0727L25.2813 16.3439C25.2132 14.5839 24.6238 12.8826 23.5865 11.4517C22.5492 10.0209 21.1098 8.9237 19.4475 8.29671C17.7852 7.66973 15.9733 7.54065 14.2375 7.92553C12.5016 8.31042 10.9184 9.19228 9.68492 10.4614C8.45142 11.7304 7.6221 13.3307 7.30017 15.0629C6.97824 16.7951 7.17793 18.5828 7.87438 20.2035C8.57082 21.8243 9.73327 23.2064 11.217 24.1779C12.7008 25.1494 14.4404 25.6674 16.2192 25.6674L16.2192 32.7474Z" fill="white"/>
<path d="M0 20.2833C0 11.7228 6.93964 4.7832 15.5001 4.7832V29.871C15.5001 38.4315 8.56048 45.3712 0 45.3712V20.2833Z" fill="#4188FF"/>
<circle cx="15.5001" cy="17.0874" r="15.5001" fill="#4188FF"/>
<path d="M31.0003 16.4483C31.0003 12.3374 29.3672 8.39487 26.4604 5.48803C23.5535 2.5812 19.611 0.948151 15.5001 0.948151C11.3892 0.94815 7.44672 2.58119 4.53988 5.48803C1.63305 8.39487 6.20727e-07 12.3374 0 16.4483L15.5001 16.4483H31.0003Z" fill="white"/>
<path d="M31.0002 13.9714C31.0002 10.687 29.6955 7.53701 27.373 5.21454C25.0505 2.89206 21.9006 1.58731 18.6161 1.58731C15.3316 1.58731 12.1817 2.89206 9.85919 5.21453C7.53672 7.53701 6.23196 10.687 6.23196 13.9714L18.6161 13.9714H31.0002Z" fill="#92BBFF"/>
<path d="M25.8868 19.6441C25.8868 22.187 24.8767 24.6256 23.0786 26.4237C21.2806 28.2217 18.8419 29.2318 16.2991 29.2318C13.7563 29.2318 11.3176 28.2217 9.51957 26.4237C7.72153 24.6256 6.7114 22.187 6.7114 19.6441L16.2991 19.6441H25.8868Z" fill="white"/>
</svg>
