<svg width="20" height="22" viewBox="0 0 20 22" fill="none" xmlns="http://www.w3.org/2000/svg">
<path d="M19.6172 13.6649L18.082 12.3523C18.1547 11.907 18.1922 11.4523 18.1922 10.9977C18.1922 10.543 18.1547 10.0883 18.082 9.64297L19.6172 8.33047C19.733 8.23135 19.8159 8.09932 19.8548 7.95196C19.8937 7.80459 19.8869 7.64886 19.8352 7.50547L19.8141 7.44454C19.3914 6.26335 18.7586 5.16837 17.9461 4.21251L17.9039 4.16329C17.8053 4.04739 17.674 3.96408 17.5271 3.92434C17.3803 3.88459 17.2248 3.89027 17.0813 3.94063L15.1758 4.61797C14.4727 4.04141 13.6875 3.58673 12.8391 3.26798L12.4711 1.27579C12.4433 1.12589 12.3706 0.987981 12.2626 0.880392C12.1546 0.772803 12.0164 0.700623 11.8664 0.673444L11.8031 0.661725C10.582 0.441412 9.29766 0.441412 8.07657 0.661725L8.01329 0.673444C7.86328 0.700623 7.72509 0.772803 7.61708 0.880392C7.50908 0.987981 7.43636 1.12589 7.4086 1.27579L7.03829 3.27735C6.19662 3.59617 5.41282 4.05061 4.71797 4.62266L2.79844 3.94063C2.65492 3.88987 2.49936 3.88398 2.35242 3.92376C2.20547 3.96353 2.07411 4.04707 1.97579 4.16329L1.9336 4.21251C1.12207 5.16905 0.489323 6.26384 0.0656297 7.44454L0.044536 7.50547C-0.0609328 7.79844 0.025786 8.12657 0.262505 8.33047L1.81641 9.65704C1.74375 10.0977 1.7086 10.5477 1.7086 10.9953C1.7086 11.4453 1.74375 11.8953 1.81641 12.3336L0.262505 13.6602C0.146713 13.7593 0.0638402 13.8913 0.0249047 14.0387C-0.0140308 14.1861 -0.0071836 14.3418 0.044536 14.4852L0.0656297 14.5461C0.489849 15.7274 1.11797 16.8172 1.9336 17.7781L1.97579 17.8274C2.07435 17.9432 2.20572 18.0266 2.35257 18.0663C2.49943 18.106 2.65488 18.1004 2.79844 18.05L4.71797 17.368C5.41641 17.9422 6.19688 18.3969 7.03829 18.7133L7.4086 20.7149C7.43636 20.8648 7.50908 21.0027 7.61708 21.1102C7.72509 21.2178 7.86328 21.29 8.01329 21.3172L8.07657 21.3289C9.30888 21.5504 10.5708 21.5504 11.8031 21.3289L11.8664 21.3172C12.0164 21.29 12.1546 21.2178 12.2626 21.1102C12.3706 21.0027 12.4433 20.8648 12.4711 20.7149L12.8391 18.7227C13.6872 18.4047 14.4767 17.9486 15.1758 17.3727L17.0813 18.05C17.2248 18.1008 17.3803 18.1067 17.5273 18.0669C17.6742 18.0271 17.8056 17.9436 17.9039 17.8274L17.9461 17.7781C18.7617 16.8149 19.3898 15.7274 19.8141 14.5461L19.8352 14.4852C19.9406 14.1969 19.8539 13.8688 19.6172 13.6649V13.6649ZM16.418 9.91954C16.4766 10.2734 16.507 10.6367 16.507 11C16.507 11.3633 16.4766 11.7266 16.418 12.0805L16.2633 13.0203L18.0141 14.518C17.7487 15.1294 17.4136 15.7083 17.0156 16.243L14.8406 15.4719L14.1047 16.0766C13.5445 16.5359 12.9211 16.8969 12.2461 17.15L11.3531 17.4852L10.9336 19.7586C10.2717 19.8336 9.60336 19.8336 8.94141 19.7586L8.52188 17.4805L7.63594 17.1406C6.96797 16.8875 6.34688 16.5266 5.79141 16.0695L5.05547 15.4625L2.86641 16.2406C2.46797 15.7039 2.13516 15.125 1.86797 14.5156L3.6375 13.0039L3.48516 12.0664C3.42891 11.7172 3.39844 11.3563 3.39844 11C3.39844 10.6414 3.42657 10.2828 3.48516 9.9336L3.6375 8.9961L1.86797 7.48438C2.13282 6.87266 2.46797 6.2961 2.86641 5.75938L5.05547 6.53751L5.79141 5.93047C6.34688 5.47344 6.96797 5.11251 7.63594 4.85938L8.52422 4.52422L8.94375 2.2461C9.60235 2.1711 10.275 2.1711 10.9359 2.2461L11.3555 4.51954L12.2484 4.85469C12.9211 5.10782 13.5469 5.46876 14.107 5.92813L14.843 6.53282L17.018 5.76172C17.4164 6.29844 17.7492 6.87735 18.0164 7.48672L16.2656 8.98438L16.418 9.91954ZM9.94219 6.64063C7.66407 6.64063 5.81719 8.48751 5.81719 10.7656C5.81719 13.0438 7.66407 14.8906 9.94219 14.8906C12.2203 14.8906 14.0672 13.0438 14.0672 10.7656C14.0672 8.48751 12.2203 6.64063 9.94219 6.64063ZM11.7984 12.6219C11.555 12.866 11.2656 13.0597 10.9471 13.1916C10.6285 13.3235 10.287 13.3912 9.94219 13.3906C9.24141 13.3906 8.58282 13.1164 8.08594 12.6219C7.84178 12.3784 7.64816 12.0891 7.51623 11.7705C7.3843 11.4519 7.31666 11.1104 7.31719 10.7656C7.31719 10.0648 7.59141 9.40626 8.08594 8.90938C8.58282 8.41251 9.24141 8.14063 9.94219 8.14063C10.643 8.14063 11.3016 8.41251 11.7984 8.90938C12.0426 9.15285 12.2362 9.44218 12.3682 9.76075C12.5001 10.0793 12.5677 10.4208 12.5672 10.7656C12.5672 11.4664 12.293 12.125 11.7984 12.6219Z" fill="#939393"/>
</svg>
